<svg width="240" height="100" viewBox="0 0 240 100" xmlns="http://www.w3.org/2000/svg" role="img" aria-label="DM Packaging Group logo">
  <defs>
    <linearGradient id="redGradient" x1="0%" y1="0%" x2="100%" y2="100%">
      <stop offset="0%" stop-color="#af1a1a" />
      <stop offset="100%" stop-color="#7f1212" />
    </linearGradient>
  </defs>
  <rect x="2" y="2" width="236" height="96" rx="18" fill="none" stroke="url(#redGradient)" stroke-width="4" />
  <path d="M36 72 L36 30 L64 30 L64 40 L46 40 L46 56 L64 56 L64 66 L36 66 Z" fill="#4a4a4a" />
  <path d="M74 30 L100 30 C112 30 120 37 120 50 C120 63 112 70 100 70 L74 70 Z M86 40 L100 40 C106 40 110 44 110 50 C110 56 106 60 100 60 L86 60 Z" fill="#4a4a4a" />
  <path d="M130 46 L150 46 L150 56 L168 56 L168 70 L130 70 Z" fill="#af1a1a" />
  <text x="54" y="94" font-family="Arial, Helvetica, sans-serif" font-size="16" fill="#7f1212" font-weight="700">PACKAGING GROUP</text>
</svg>
